<svg width="740" height="330" viewBox="0 0 740 330" fill="none" xmlns="http://www.w3.org/2000/svg">
<rect width="740" height="330" fill="#2C2828"/>
<rect x="35" y="40" width="670" height="250" fill="#2C2828"/>
<path d="M85 165.5L248.362 84.5266L248.362 246.473L85 165.5Z" fill="#BA49FF"/>
<path d="M472.817 165.5L309.454 246.473V84.5266L472.817 165.5Z" fill="#BA49FF"/>
<path d="M187.897 176.421C180.178 174.202 174.553 171.484 171.022 168.265C167.522 165.015 165.772 161.015 165.772 156.265C165.772 150.89 167.912 146.452 172.193 142.952C176.506 139.421 182.1 137.656 188.975 137.656C193.662 137.656 197.834 138.562 201.49 140.374C205.178 142.187 208.022 144.687 210.022 147.874C212.053 151.062 213.068 154.546 213.068 158.327H204.022C204.022 154.202 202.709 150.968 200.084 148.624C197.459 146.249 193.756 145.062 188.975 145.062C184.537 145.062 181.068 146.046 178.568 148.015C176.1 149.952 174.865 152.656 174.865 156.124C174.865 158.906 176.037 161.265 178.381 163.202C180.756 165.109 184.772 166.859 190.428 168.452C196.115 170.046 200.553 171.812 203.74 173.749C206.959 175.656 209.334 177.89 210.865 180.452C212.428 183.015 213.209 186.031 213.209 189.499C213.209 195.031 211.053 199.468 206.74 202.812C202.428 206.124 196.662 207.781 189.443 207.781C184.756 207.781 180.381 206.89 176.318 205.109C172.256 203.296 169.115 200.827 166.897 197.702C164.709 194.577 163.615 191.031 163.615 187.062H172.662C172.662 191.187 174.178 194.452 177.209 196.859C180.272 199.234 184.35 200.421 189.443 200.421C194.193 200.421 197.834 199.452 200.365 197.515C202.897 195.577 204.162 192.937 204.162 189.593C204.162 186.249 202.99 183.671 200.647 181.859C198.303 180.015 194.053 178.202 187.897 176.421ZM235.193 143.843V156.124H244.662V162.827H235.193V194.281C235.193 196.312 235.615 197.843 236.459 198.874C237.303 199.874 238.74 200.374 240.772 200.374C241.772 200.374 243.147 200.187 244.897 199.812V206.843C242.615 207.468 240.397 207.781 238.24 207.781C234.365 207.781 231.443 206.609 229.475 204.265C227.506 201.921 226.522 198.593 226.522 194.281V162.827H217.287V156.124H226.522V143.843H235.193Z" fill="#2C2828"/>
<path d="M328.406 205.156H319.734V133.156H328.406V205.156ZM363.375 206.094C356.5 206.094 350.906 203.844 346.593 199.344C342.281 194.813 340.125 188.766 340.125 181.203V179.609C340.125 174.578 341.078 170.094 342.984 166.156C344.921 162.188 347.609 159.094 351.046 156.875C354.515 154.625 358.265 153.5 362.296 153.5C368.89 153.5 374.015 155.672 377.671 160.016C381.328 164.359 383.156 170.578 383.156 178.672V182.281H348.796C348.921 187.281 350.375 191.328 353.156 194.422C355.968 197.484 359.531 199.016 363.843 199.016C366.906 199.016 369.5 198.391 371.625 197.141C373.75 195.891 375.609 194.234 377.203 192.172L382.5 196.297C378.25 202.828 371.875 206.094 363.375 206.094ZM362.296 160.625C358.796 160.625 355.859 161.906 353.484 164.469C351.109 167 349.64 170.563 349.078 175.156H374.484V174.5C374.234 170.094 373.046 166.688 370.921 164.281C368.796 161.844 365.921 160.625 362.296 160.625Z" fill="#2C2828"/>
<path d="M281.156 200.297L292.969 162.281H302.25L281.859 220.828C278.703 229.266 273.688 233.484 266.812 233.484L265.172 233.344L261.938 232.734V225.703L264.281 225.891C267.219 225.891 269.5 225.297 271.125 224.109C272.781 222.922 274.141 220.75 275.203 217.594L277.125 212.438L259.031 162.281H268.5L281.156 200.297Z" fill="#BA49FF"/>
<path d="M488.336 207C487.696 207 487.248 206.808 486.992 206.424C486.736 206.168 486.608 205.816 486.608 205.368C486.608 205.24 486.64 205.08 486.704 204.888L500.048 142.008C500.176 141.368 500.464 140.856 500.912 140.472C501.424 140.024 502 139.8 502.64 139.8H525.008C530.896 139.8 535.44 141.016 538.64 143.448C541.904 145.816 543.536 149.336 543.536 154.008C543.536 155.608 543.344 157.336 542.96 159.192C541.872 164.248 539.728 168.344 536.528 171.48C533.392 174.552 529.392 176.632 524.528 177.72L534.416 204.024C534.48 204.152 534.512 204.312 534.512 204.504C534.512 204.696 534.48 204.888 534.416 205.08C534.352 205.592 534.064 206.04 533.552 206.424C533.104 206.808 532.624 207 532.112 207H530.96C530 207 529.328 206.808 528.944 206.424C528.56 205.976 528.208 205.304 527.888 204.408L518.096 178.584H498.32L492.752 204.888C492.624 205.528 492.304 206.04 491.792 206.424C491.28 206.808 490.704 207 490.064 207H488.336ZM517.52 172.824C528.528 172.824 534.992 168.28 536.912 159.192C537.232 157.72 537.392 156.44 537.392 155.352C537.392 148.824 532.688 145.56 523.28 145.56H505.328L499.568 172.824H517.52ZM570.862 207.96C564.078 207.96 558.958 206.52 555.502 203.64C552.046 200.696 550.318 196.216 550.318 190.2C550.318 187.192 550.67 184.12 551.374 180.984L559.63 142.008C559.758 141.368 560.046 140.856 560.494 140.472C561.006 140.024 561.582 139.8 562.222 139.8H563.95C564.59 139.8 565.07 139.992 565.39 140.376C565.646 140.632 565.774 140.984 565.774 141.432C565.774 141.624 565.742 141.816 565.678 142.008L557.326 181.272C556.622 184.6 556.27 187.384 556.27 189.624C556.27 193.976 557.422 197.176 559.726 199.224C562.094 201.208 565.806 202.2 570.862 202.2C583.726 202.2 591.662 195.224 594.67 181.272L603.022 142.008C603.15 141.368 603.438 140.856 603.886 140.472C604.398 140.024 605.006 139.8 605.71 139.8H607.438C608.078 139.8 608.558 139.992 608.878 140.376C609.07 140.696 609.166 141.048 609.166 141.432C609.166 141.624 609.134 141.816 609.07 142.008L600.814 180.984C598.83 190.264 595.406 197.08 590.542 201.432C585.742 205.784 579.182 207.96 570.862 207.96ZM614.869 207C614.229 207 613.749 206.808 613.429 206.424C613.173 206.168 613.045 205.816 613.045 205.368C613.045 205.24 613.077 205.08 613.141 204.888L626.485 142.008C626.613 141.304 626.901 140.76 627.349 140.376C627.797 139.992 628.341 139.8 628.981 139.8H630.901C631.797 139.8 632.405 140.184 632.725 140.952L656.821 195.768L668.245 142.008C668.373 141.368 668.661 140.856 669.109 140.472C669.621 140.024 670.197 139.8 670.837 139.8H672.565C673.205 139.8 673.685 139.992 674.005 140.376C674.261 140.632 674.389 140.984 674.389 141.432C674.389 141.624 674.357 141.816 674.293 142.008L660.949 204.792C660.821 205.496 660.533 206.04 660.085 206.424C659.637 206.808 659.093 207 658.453 207H656.533C655.637 207 655.029 206.616 654.709 205.848L630.709 151.224L619.285 204.888C619.157 205.528 618.837 206.04 618.325 206.424C617.877 206.808 617.333 207 616.693 207H614.869Z" fill="#EF8DFF"/>
</svg>
